# xmcd
# 
# Track frame offsets:
#     150
#     19011
#     34894
#     49566
#     62938
#     72350
#     91827
#     118916
#     132811
#     151999
#     170154
#     189304
#     211014
#     229310
#     247113
#     263529
# 
# Disc length: 3744
# 
# Revision: 0
# Processed by: cddbd v1.5.2PL0 Copyright (c) Steve Scherf et al.
# Submitted via: BonkEnc v1.0.8
# 
DISCID=dd0e9e10
DTITLE=Various Artist - Country Line Dance usic 1
DYEAR=1900
DGENRE=Country
TTITLE0=Line Dance - Canadian Stomp
TTITLE1=Line Dance - Bless Texas
TTITLE2=Line Dance - Reggea Cowboy
TTITLE3=Line Dance - De Lux
TTITLE4=Line Dance - All Shook Up
TTITLE5=Line Dance - Neon Moon
TTITLE6=Line Dance - Mucara Walk
TTITLE7=Line Dance - Smokey Places
TTITLE8=Line Dance - Red Hot Salsa
TTITLE9=Line Dance - Native American
TTITLE10=Line Dance - Jamaica Mistake
TTITLE11=Line Dance - Coastin
TTITLE12=Line Dance - Pizziricco
TTITLE13=Line Dance - Single Waltz
TTITLE14=Line Dance - Kelly´s Kannibal
TTITLE15=Line Dance - Country Walkin
EXTD=
EXTT0=
EXTT1=
EXTT2=
EXTT3=
EXTT4=
EXTT5=
EXTT6=
EXTT7=
EXTT8=
EXTT9=
EXTT10=
EXTT11=
EXTT12=
EXTT13=
EXTT14=
EXTT15=
PLAYORDER=
